<svg width="24" height="24" viewBox="0 0 24 24" fill="none" xmlns="http://www.w3.org/2000/svg">
<g clip-path="url(#clip0_190_1905)">
<path d="M19.3992 13.936C22.4924 10.8428 22.9018 6.2371 20.3136 3.64891C17.7254 1.06072 13.1197 1.47011 10.0265 4.56332C6.93332 7.65652 6.52393 12.2622 9.11212 14.8504C11.7003 17.4386 16.306 17.0292 19.3992 13.936Z" stroke="#2965E7" stroke-width="1.61647" stroke-miterlimit="10" stroke-linecap="round" stroke-linejoin="round"/>
<path d="M7.46587 9.82812V11.8487C7.46587 13.4652 6.81928 15.0008 5.68774 16.1324L8.03163 18.4763C9.16316 17.3447 10.6988 16.6981 12.3153 16.6981H14.3359" stroke="#2965E7" stroke-width="1.61647" stroke-miterlimit="10" stroke-linecap="round" stroke-linejoin="round"/>
<path d="M7.78919 18.5558L3.82883 22.5162C3.18224 23.1628 2.13153 23.1628 1.48494 22.5162C0.838353 21.8696 0.838353 20.8189 1.48494 20.1723L5.4453 16.2119" stroke="#2965E7" stroke-width="1.61647" stroke-miterlimit="10" stroke-linecap="round" stroke-linejoin="round"/>
<path d="M13.8508 5.46289L18.5386 10.1507" stroke="#2965E7" stroke-width="1.61647" stroke-miterlimit="10" stroke-linecap="round" stroke-linejoin="round"/>
<path d="M10.2944 11.3624L16.7603 4.89648" stroke="#2965E7" stroke-width="1.61647" stroke-miterlimit="10" stroke-linecap="round" stroke-linejoin="round"/>
<path d="M12.6382 13.7071L19.1041 7.24121" stroke="#2965E7" stroke-width="1.61647" stroke-miterlimit="10" stroke-linecap="round" stroke-linejoin="round"/>
<path d="M10.8611 8.37402L15.6297 13.1426" stroke="#2965E7" stroke-width="1.61647" stroke-miterlimit="10" stroke-linecap="round" stroke-linejoin="round"/>
</g>
<defs>
<clipPath id="clip0_190_1905">
<rect width="24" height="24" fill="white"/>
</clipPath>
</defs>
</svg>
