<svg width="24" height="24" viewBox="0 0 24 24" fill="none" xmlns="http://www.w3.org/2000/svg">
<g clip-path="url(#clip0_190_1899)">
<path d="M21.366 17.6369C20.6152 16.8854 19.7378 16.272 18.7742 15.8249C20.1331 14.724 21 13.0441 21 11.1602C21 7.83633 18.2282 5.10946 14.9043 5.16046C11.6315 5.21145 8.99462 7.87833 8.99462 11.1602C8.99462 13.0441 9.86458 14.724 11.2205 15.8249C10.2567 16.2717 9.37926 16.8851 8.62864 17.6369C6.99072 19.2778 6.06076 21.4437 6.00076 23.7536C5.99996 23.7856 6.00558 23.8174 6.01728 23.8472C6.02898 23.8771 6.04653 23.9042 6.0689 23.9272C6.09126 23.9501 6.11799 23.9683 6.14751 23.9807C6.17702 23.9932 6.20873 23.9996 6.24075 23.9996H7.92067C8.04967 23.9996 8.15766 23.8976 8.16066 23.7686C8.21766 22.0286 8.92263 20.3997 10.1616 19.1638C10.7956 18.5264 11.5497 18.0211 12.3802 17.6772C13.2108 17.3332 14.1014 17.1574 15.0003 17.1599C16.8272 17.1599 18.5462 17.8708 19.8391 19.1638C21.075 20.3997 21.78 22.0286 21.84 23.7686C21.843 23.8976 21.951 23.9996 22.08 23.9996H23.7599C23.7919 23.9996 23.8236 23.9932 23.8532 23.9807C23.8827 23.9683 23.9094 23.9501 23.9318 23.9272C23.9541 23.9042 23.9717 23.8771 23.9834 23.8472C23.9951 23.8174 24.0007 23.7856 23.9999 23.7536C23.9399 21.4437 23.0099 19.2778 21.366 17.6369ZM15.0003 15C13.9744 15 13.0084 14.601 12.2855 13.875C11.9226 13.5151 11.636 13.0857 11.4428 12.6126C11.2495 12.1394 11.1535 11.6322 11.1605 11.1212C11.1695 10.1372 11.5625 9.18626 12.2495 8.4813C12.9694 7.74333 13.9324 7.33235 14.9613 7.32035C15.9783 7.31135 16.9652 7.70734 17.6912 8.4183C18.4352 9.14727 18.8431 10.1222 18.8431 11.1602C18.8431 12.1861 18.4442 13.1491 17.7182 13.875C17.362 14.2329 16.9384 14.5166 16.4719 14.7097C16.0054 14.9028 15.5052 15.0015 15.0003 15ZM7.48569 11.9521C7.45869 11.6911 7.4437 11.4272 7.4437 11.1602C7.4437 10.6832 7.48869 10.2182 7.57269 9.76524C7.59369 9.65724 7.53669 9.54625 7.4377 9.50125C7.02972 9.31826 6.65473 9.06627 6.33075 8.74829C5.94899 8.37813 5.64858 7.93245 5.44869 7.4397C5.2488 6.94694 5.15381 6.41794 5.1698 5.88642C5.1968 4.92347 5.58378 4.00851 6.25875 3.31855C6.99972 2.55958 7.99567 2.1456 9.05462 2.1576C10.0116 2.1666 10.9355 2.53558 11.6345 3.18955C11.8715 3.41154 12.0755 3.65753 12.2465 3.92152C12.3065 4.01451 12.4235 4.05351 12.5255 4.01751C13.0534 3.83452 13.6114 3.70553 14.1844 3.64553C14.3524 3.62753 14.4484 3.44754 14.3734 3.29755C13.3984 1.36864 11.4065 0.0367022 9.10262 0.000703879C5.77577 -0.0502937 3.00391 2.67658 3.00391 5.99742C3.00391 7.88133 3.87087 9.56125 5.2298 10.6622C4.27585 11.1032 3.39689 11.7121 2.63493 12.4741C0.991004 14.115 0.0610487 16.2809 0.00105158 18.5938C0.0002509 18.6258 0.00586671 18.6577 0.0175683 18.6875C0.0292698 18.7173 0.0468203 18.7445 0.0691855 18.7674C0.0915507 18.7903 0.118278 18.8085 0.147793 18.821C0.177308 18.8334 0.209013 18.8398 0.24104 18.8398H1.92396C2.05295 18.8398 2.16095 18.7378 2.16395 18.6088C2.22095 16.8689 2.92591 15.24 4.16485 14.004C5.04681 13.1221 6.12676 12.5101 7.3057 12.2131C7.4227 12.1831 7.50069 12.0721 7.48569 11.9521Z" fill="white"/>
</g>
<defs>
<clipPath id="clip0_190_1899">
<rect width="24" height="24" fill="white"/>
</clipPath>
</defs>
</svg>
