<svg width="24" height="24" viewBox="0 0 24 24" fill="none" xmlns="http://www.w3.org/2000/svg">
<path d="M2.4 2H21.6C22.2365 2 22.847 2.25286 23.2971 2.70294C23.7471 3.15303 24 3.76348 24 4.4V18.8C24 19.4365 23.7471 20.047 23.2971 20.4971C22.847 20.9471 22.2365 21.2 21.6 21.2H2.4C1.76348 21.2 1.15303 20.9471 0.702944 20.4971C0.252856 20.047 0 19.4365 0 18.8V4.4C0 3.76348 0.252856 3.15303 0.702944 2.70294C1.15303 2.25286 1.76348 2 2.4 2ZM2.4 4.4V18.8H10.8V4.4H2.4ZM21.6 18.8V4.4H20.112C20.4 5.048 20.34 5.684 20.34 5.756C20.256 6.56 19.692 7.4 19.488 7.7L16.692 10.76L20.676 10.736L20.688 12.2L14.448 12.164L14.4 10.964C14.4 10.964 18.06 7.088 18.24 6.74C18.408 6.404 19.092 4.4 17.4 4.4C15.924 4.46 16.092 5.96 16.092 5.96L14.244 5.972C14.244 5.972 14.256 5.18 14.7 4.4H13.2V18.8H16.296L16.284 17.768L17.448 17.756C17.448 17.756 18.54 17.564 18.552 16.496C18.6 15.296 17.58 15.296 17.4 15.296C17.244 15.296 16.116 15.356 16.116 16.34H14.292C14.292 16.34 14.34 13.868 17.4 13.868C20.52 13.868 20.352 16.292 20.352 16.292C20.352 16.292 20.4 17.792 19.02 18.356L19.644 18.8H21.6ZM8.304 16.4H6.504V9.44L4.344 10.112V8.636L8.112 7.292H8.304V16.4Z" fill="#2965E7"/>
</svg>
