<svg width="24" height="24" viewBox="0 0 24 24" fill="none" xmlns="http://www.w3.org/2000/svg">
<path d="M15.6923 1.00002C14.2986 0.996761 12.9266 1.34495 11.7031 2.0124C10.4797 2.67985 9.44422 3.64501 8.69256 4.81864C7.94091 5.99226 7.49731 7.33647 7.40277 8.72695C7.30823 10.1174 7.56581 11.5093 8.15169 12.7739L0 20.9246L1.30523 22.2308L9.13938 14.3966C9.56443 14.9438 10.0562 15.4356 10.6034 15.8606L7.38462 19.0794L8.68985 20.3846L12.2262 16.8483C13.354 17.3671 14.5839 17.6263 15.8252 17.607C17.0665 17.5877 18.2877 17.2903 19.3989 16.7367C20.5101 16.1831 21.483 15.3874 22.2461 14.4082C23.0092 13.4289 23.543 12.291 23.8082 11.0782C24.0735 9.86544 24.0634 8.60861 23.7788 7.40021C23.4942 6.19182 22.9422 5.06261 22.1636 4.0957C21.3849 3.12878 20.3994 2.34876 19.2795 1.81302C18.1596 1.27728 16.9338 0.999471 15.6923 1.00002ZM22.0671 8.29787C20.7216 8.08289 19.4785 7.44841 18.5151 6.48497C17.5516 5.52153 16.9171 4.27838 16.7022 2.93295C18.0476 3.14792 19.2907 3.78241 20.2542 4.74584C21.2176 5.70928 21.8521 6.95243 22.0671 8.29787ZM9.31754 10.3176C10.663 10.5325 11.9061 11.167 12.8696 12.1305C13.833 13.0939 14.4675 14.337 14.6825 15.6825C13.337 15.4675 12.0939 14.833 11.1304 13.8696C10.167 12.9061 9.53252 11.663 9.31754 10.3176ZM16.5508 15.7056C16.3272 13.8586 15.4909 12.1399 14.1754 10.8243C12.86 9.50868 11.1414 8.67211 9.29446 8.44833C9.48446 7.04633 10.1291 5.74536 11.1295 4.74493C12.1299 3.7445 13.4309 3.09986 14.8329 2.90987C15.0565 4.75684 15.8928 6.47552 17.2083 7.79114C18.5237 9.10675 20.2423 9.94333 22.0892 10.1671C21.8992 11.5691 21.2546 12.8701 20.2542 13.8705C19.2537 14.8709 17.9528 15.5156 16.5508 15.7056Z" fill="white"/>
</svg>
