<svg width="24" height="24" viewBox="0 0 24 24" fill="none" xmlns="http://www.w3.org/2000/svg">
<path d="M4 9.80222C4 15.2701 8.85084 19.7919 10.998 21.5255L10.9988 21.5262C11.3067 21.7748 11.4607 21.8991 11.6901 21.9628C11.8687 22.0124 12.1312 22.0124 12.3097 21.9628C12.5394 21.8991 12.6938 21.7746 13.0023 21.5255C15.1494 19.7919 20 15.2701 20 9.80218C20 7.73291 19.1572 5.74841 17.6569 4.28521C16.1566 2.82202 14.1218 2 12.0001 2C9.87833 2 7.84345 2.822 6.34315 4.2852C4.84286 5.74839 4 7.73295 4 9.80222Z" fill="white" stroke="#2965E7" stroke-width="2" stroke-linecap="round" stroke-linejoin="round"/>
</svg>
