<svg width="24" height="24" viewBox="0 0 24 24" fill="none" xmlns="http://www.w3.org/2000/svg">
<path d="M12.0136 12.9644C12.3753 12.9644 12.7009 12.7907 13.0807 12.4159L20.5233 4.95704C20.2068 4.64625 19.6099 4.5 18.7689 4.5H4.98691C4.27249 4.5 3.75702 4.63711 3.46763 4.92048L10.9555 12.4159C11.3263 12.7907 11.6609 12.9644 12.0136 12.9644ZM2.72608 18.0832L8.80319 11.9954L2.71704 5.92596C2.57235 6.1819 2.5 6.61152 2.5 7.22395V16.7761C2.5 17.3885 2.57235 17.8272 2.72608 18.0832ZM21.292 18.0649C21.4277 17.809 21.5 17.3793 21.5 16.7761V7.22395C21.5 6.6298 21.4277 6.20018 21.292 5.94424L15.2239 11.9954L21.292 18.0649ZM5.23108 19.5H19.0131C19.7456 19.5 20.252 19.3537 20.5414 19.0795L14.3467 12.8638L13.7861 13.4305C13.1982 13.9973 12.6376 14.2715 12.0136 14.2715C11.3896 14.2715 10.8289 13.9973 10.2411 13.4305L9.68039 12.8638L3.50381 19.0612C3.82937 19.3537 4.40814 19.5 5.23108 19.5Z" fill="white"/>
</svg>
